<?xml version="1.0" encoding="utf-8"?>
<!-- Generator: Adobe Illustrator 26.0.2, SVG Export Plug-In . SVG Version: 6.00 Build 0)  -->
<svg version="1.1" id="Layer_1" xmlns="http://www.w3.org/2000/svg" xmlns:xlink="http://www.w3.org/1999/xlink" x="0px" y="0px"
	 viewBox="0 0 100 41" style="enable-background:new 0 0 100 41;" xml:space="preserve">
<style type="text/css">
	.st0{fill:#5FB246;}
	
		.st1{clip-path:url(#SVGID_00000182527210188305594860000010448561643603851917_);fill:url(#SVGID_00000110442661127203794220000004053362587160988324_);}
	.st2{opacity:0.57;fill-rule:evenodd;clip-rule:evenodd;fill:#FFCD4B;}
	.st3{opacity:0.43;fill-rule:evenodd;clip-rule:evenodd;fill:#60BD7A;}
	
		.st4{clip-path:url(#SVGID_00000020399455451855563660000002767800884837677999_);fill:url(#SVGID_00000121978708778128764300000016983599326855324049_);}
</style>
<g>
	<g>
		<g>
			<g>
				<path class="st0" d="M36,18.19h3.92c0.09,0,0.17,0.03,0.24,0.09c0.06,0.06,0.1,0.14,0.1,0.23c0,0.09-0.03,0.17-0.1,0.23
					c-0.06,0.06-0.14,0.09-0.24,0.09h-3.68l0.11-0.18v3.01l-0.12-0.14h3.2c0.09,0,0.17,0.03,0.24,0.1c0.06,0.06,0.1,0.14,0.1,0.23
					c0,0.09-0.03,0.17-0.1,0.23c-0.06,0.06-0.14,0.09-0.24,0.09h-3.18l0.1-0.11v3.09l-0.05-0.06h3.62c0.09,0,0.17,0.03,0.24,0.1
					c0.06,0.06,0.1,0.14,0.1,0.23c0,0.09-0.03,0.17-0.1,0.23c-0.06,0.06-0.14,0.09-0.24,0.09H36c-0.09,0-0.17-0.03-0.23-0.1
					c-0.06-0.06-0.09-0.14-0.09-0.23v-6.86c0-0.09,0.03-0.16,0.09-0.23C35.83,18.22,35.91,18.19,36,18.19z"/>
				<path class="st0" d="M48.53,18.74c0.09,0.06,0.14,0.13,0.15,0.22c0.01,0.09-0.01,0.18-0.08,0.26c-0.05,0.07-0.11,0.11-0.19,0.11
					c-0.08,0-0.15-0.01-0.23-0.05c-0.26-0.18-0.55-0.32-0.87-0.42c-0.31-0.1-0.65-0.15-1-0.15c-0.44,0-0.84,0.08-1.22,0.24
					c-0.38,0.16-0.7,0.38-0.98,0.66c-0.28,0.29-0.49,0.63-0.65,1.02c-0.15,0.39-0.23,0.83-0.23,1.3c0,0.49,0.08,0.93,0.24,1.32
					c0.16,0.4,0.38,0.74,0.66,1.02c0.28,0.29,0.61,0.5,0.98,0.65c0.37,0.15,0.77,0.23,1.2,0.23c0.35,0,0.68-0.05,0.99-0.15
					c0.31-0.1,0.6-0.24,0.87-0.41c0.07-0.04,0.15-0.06,0.23-0.05c0.08,0.01,0.15,0.05,0.2,0.12c0.06,0.08,0.08,0.16,0.06,0.26
					c-0.01,0.09-0.06,0.16-0.14,0.2c-0.18,0.11-0.39,0.22-0.63,0.33c-0.24,0.1-0.5,0.18-0.77,0.24c-0.27,0.06-0.54,0.09-0.81,0.09
					c-0.51,0-1-0.09-1.45-0.28c-0.45-0.19-0.85-0.45-1.2-0.79c-0.35-0.34-0.62-0.74-0.82-1.22c-0.2-0.47-0.3-1-0.3-1.58
					c0-0.56,0.1-1.07,0.29-1.53c0.2-0.46,0.47-0.87,0.81-1.22c0.34-0.35,0.74-0.62,1.2-0.81c0.46-0.19,0.95-0.29,1.47-0.29
					c0.41,0,0.8,0.06,1.18,0.17C47.88,18.38,48.22,18.54,48.53,18.74z"/>
				<path class="st0" d="M58.02,21.94c0,0.56-0.09,1.08-0.26,1.55c-0.18,0.47-0.42,0.88-0.74,1.22c-0.32,0.35-0.7,0.61-1.14,0.8
					c-0.44,0.19-0.92,0.28-1.44,0.28c-0.53,0-1.01-0.09-1.45-0.28c-0.44-0.19-0.81-0.46-1.14-0.8c-0.32-0.35-0.57-0.75-0.75-1.22
					c-0.18-0.47-0.27-0.98-0.27-1.55c0-0.56,0.09-1.08,0.27-1.55c0.18-0.47,0.43-0.88,0.75-1.22c0.32-0.35,0.7-0.61,1.14-0.8
					c0.44-0.19,0.92-0.28,1.45-0.28c0.52,0,1,0.09,1.44,0.28c0.44,0.19,0.82,0.46,1.14,0.8c0.32,0.35,0.57,0.75,0.74,1.22
					C57.93,20.86,58.02,21.37,58.02,21.94z M57.34,21.94c0-0.64-0.13-1.2-0.38-1.68c-0.25-0.48-0.59-0.86-1.02-1.13
					c-0.43-0.27-0.93-0.41-1.51-0.41c-0.56,0-1.07,0.14-1.51,0.41c-0.44,0.27-0.78,0.65-1.03,1.13c-0.25,0.48-0.37,1.04-0.37,1.68
					c0,0.64,0.12,1.2,0.37,1.68c0.25,0.48,0.59,0.86,1.03,1.13c0.44,0.27,0.94,0.41,1.51,0.41c0.57,0,1.07-0.14,1.51-0.41
					c0.43-0.27,0.77-0.65,1.02-1.13C57.21,23.13,57.34,22.57,57.34,21.94z"/>
				<path class="st0" d="M60.29,18.8c-0.09,0-0.16-0.03-0.23-0.09c-0.06-0.06-0.1-0.13-0.1-0.21c0-0.09,0.03-0.17,0.1-0.23
					c0.06-0.06,0.14-0.09,0.23-0.09h5.09c0.09,0,0.17,0.03,0.24,0.09c0.06,0.06,0.1,0.13,0.1,0.23c0,0.09-0.03,0.17-0.1,0.22
					c-0.06,0.05-0.14,0.08-0.24,0.08H60.29z M62.84,25.69c-0.1,0-0.18-0.03-0.25-0.1s-0.1-0.14-0.1-0.23v-6.83h0.68v6.83
					c0,0.09-0.03,0.16-0.1,0.23S62.94,25.69,62.84,25.69z"/>
				<path class="st0" d="M68.74,25.69c-0.11,0-0.19-0.03-0.26-0.1c-0.07-0.06-0.1-0.14-0.1-0.23v-6.86c0-0.09,0.03-0.16,0.09-0.23
					c0.06-0.06,0.14-0.1,0.23-0.1h2.89c0.41,0,0.77,0.09,1.09,0.26c0.32,0.18,0.57,0.42,0.76,0.72c0.18,0.31,0.27,0.66,0.27,1.05
					c0,0.31-0.06,0.6-0.17,0.86c-0.11,0.26-0.28,0.48-0.48,0.66c-0.21,0.18-0.44,0.32-0.7,0.41l-0.38-0.13
					c0.26,0.03,0.51,0.12,0.74,0.26c0.23,0.15,0.41,0.35,0.55,0.6c0.14,0.25,0.21,0.56,0.22,0.91c0.01,0.31,0.02,0.55,0.05,0.72
					c0.03,0.17,0.06,0.3,0.11,0.39c0.05,0.09,0.11,0.15,0.19,0.2c0.07,0.04,0.12,0.1,0.14,0.18c0.02,0.08,0.02,0.15-0.03,0.23
					c-0.03,0.06-0.07,0.1-0.13,0.12c-0.06,0.03-0.11,0.04-0.17,0.04c-0.06,0-0.11-0.01-0.16-0.04c-0.11-0.06-0.21-0.15-0.31-0.27
					c-0.1-0.12-0.18-0.3-0.25-0.54c-0.07-0.24-0.1-0.56-0.1-0.99c0-0.28-0.04-0.51-0.13-0.68c-0.09-0.17-0.2-0.31-0.34-0.41
					c-0.14-0.1-0.29-0.17-0.46-0.2c-0.17-0.04-0.33-0.05-0.48-0.05h-2.5l0.12-0.16v3.03c0,0.09-0.03,0.16-0.09,0.23
					C68.9,25.66,68.83,25.69,68.74,25.69z M68.93,21.89h2.69c0.24-0.02,0.47-0.1,0.68-0.24c0.21-0.14,0.38-0.33,0.52-0.57
					c0.14-0.25,0.2-0.53,0.2-0.85c0-0.41-0.14-0.74-0.41-1.01c-0.28-0.27-0.63-0.4-1.08-0.4h-2.56l0.08-0.14v3.37L68.93,21.89z"/>
				<path class="st0" d="M77.16,18.19h3.92c0.09,0,0.17,0.03,0.24,0.09c0.06,0.06,0.1,0.14,0.1,0.23c0,0.09-0.03,0.17-0.1,0.23
					c-0.06,0.06-0.14,0.09-0.24,0.09H77.4l0.11-0.18v3.01l-0.12-0.14h3.2c0.09,0,0.17,0.03,0.24,0.1c0.06,0.06,0.1,0.14,0.1,0.23
					c0,0.09-0.03,0.17-0.1,0.23c-0.06,0.06-0.14,0.09-0.24,0.09h-3.18l0.1-0.11v3.09l-0.05-0.06h3.62c0.09,0,0.17,0.03,0.24,0.1
					c0.06,0.06,0.1,0.14,0.1,0.23c0,0.09-0.03,0.17-0.1,0.23c-0.06,0.06-0.14,0.09-0.24,0.09h-3.92c-0.09,0-0.17-0.03-0.23-0.1
					c-0.06-0.06-0.09-0.14-0.09-0.23v-6.86c0-0.09,0.03-0.16,0.09-0.23C76.99,18.22,77.07,18.19,77.16,18.19z"/>
				<path class="st0" d="M89.7,18.19c0.09,0,0.17,0.03,0.22,0.09C89.97,18.33,90,18.4,90,18.49v6.86c0,0.11-0.03,0.19-0.1,0.25
					c-0.07,0.06-0.14,0.09-0.23,0.09c-0.05,0-0.1-0.01-0.14-0.03c-0.05-0.02-0.08-0.04-0.11-0.08l-4.78-6.43l0.18-0.11v6.36
					c0,0.08-0.03,0.15-0.09,0.2c-0.06,0.06-0.13,0.09-0.21,0.09c-0.09,0-0.17-0.03-0.22-0.09c-0.05-0.06-0.08-0.12-0.08-0.2v-6.89
					c0-0.1,0.03-0.18,0.09-0.24c0.06-0.06,0.13-0.09,0.22-0.09c0.04,0,0.09,0.01,0.14,0.03c0.05,0.02,0.09,0.05,0.12,0.09l4.73,6.37
					l-0.11,0.19v-6.38c0-0.09,0.03-0.16,0.09-0.21C89.54,18.21,89.61,18.19,89.7,18.19z"/>
				<path class="st0" d="M96.35,18.19c0.53,0,0.99,0.1,1.38,0.3c0.39,0.2,0.72,0.48,0.98,0.83c0.26,0.35,0.45,0.76,0.58,1.21
					c0.12,0.45,0.19,0.92,0.19,1.41c0,0.69-0.11,1.31-0.34,1.88c-0.23,0.57-0.57,1.02-1.03,1.36c-0.46,0.34-1.05,0.51-1.76,0.51
					h-2.73c-0.09,0-0.17-0.03-0.23-0.1c-0.06-0.06-0.09-0.14-0.09-0.23v-6.86c0-0.09,0.03-0.16,0.09-0.23
					c0.06-0.06,0.14-0.1,0.23-0.1H96.35z M96.24,25.06c0.6,0,1.09-0.14,1.46-0.42c0.38-0.28,0.65-0.66,0.83-1.13
					c0.18-0.48,0.26-1,0.26-1.57c0-0.41-0.05-0.8-0.14-1.18c-0.1-0.38-0.25-0.71-0.45-1c-0.2-0.29-0.47-0.52-0.79-0.69
					c-0.33-0.17-0.71-0.25-1.16-0.25H93.9l0.08-0.09v6.43l-0.06-0.11H96.24z"/>
			</g>
		</g>
	</g>
	<g>
		<g>
			<defs>
				<path id="SVGID_1_" d="M14.66,21.9c0.14-7.64,0.21-11.46,0.21-11.46c0.28,6.17,0.43,9.26,0.43,9.26
					c1.72-1.61,2.66-3.87,2.61-6.22c-0.05-2.35-1.11-4.57-2.9-6.09C10.77,12.97,10.65,17.81,14.66,21.9"/>
			</defs>
			<clipPath id="SVGID_00000155845049178728124990000012766252023550887609_">
				<use xlink:href="#SVGID_1_"  style="overflow:visible;"/>
			</clipPath>
			
				<linearGradient id="SVGID_00000091006925483556556040000008005907871496924606_" gradientUnits="userSpaceOnUse" x1="12.6328" y1="15.3345" x2="17.4865" y2="13.3107">
				<stop  offset="0" style="stop-color:#018B45"/>
				<stop  offset="1" style="stop-color:#85BB40"/>
			</linearGradient>
			
				<rect x="10.65" y="7.37" style="clip-path:url(#SVGID_00000155845049178728124990000012766252023550887609_);fill:url(#SVGID_00000091006925483556556040000008005907871496924606_);" width="7.32" height="14.52"/>
		</g>
		<path class="st2" d="M14.63,21.9c5.33-5.48,8-8.22,8-8.22c-4.01,4.7-6.02,7.04-6.02,7.04c2.35,0,4.59-1,6.16-2.75
			c1.57-1.75,2.32-4.09,2.06-6.43C17.9,12.72,14.5,16.17,14.63,21.9"/>
		<path class="st3" d="M14.63,21.93c7.55-1.17,11.33-1.76,11.33-1.76c-6.03,1.34-9.04,2.01-9.04,2.01c1.88,1.41,4.27,1.96,6.58,1.5
			c2.31-0.46,4.31-1.87,5.51-3.9C22.75,16.56,17.96,17.27,14.63,21.93"/>
		<path class="st3" d="M14.63,21.86c6.69,3.7,10.03,5.55,10.03,5.55c-5.59-2.63-8.38-3.95-8.38-3.95c0.62,2.27,2.18,4.17,4.28,5.22
			c2.1,1.05,4.56,1.16,6.74,0.29C24.34,22.59,20.12,20.22,14.63,21.86"/>
		<path class="st3" d="M14.65,21.9c3.17,6.96,4.75,10.43,4.75,10.43c-2.92-5.44-4.38-8.17-4.38-8.17c-0.85,2.19-0.74,4.64,0.33,6.74
			c1.06,2.1,2.97,3.64,5.24,4.25C22.02,28.28,20.04,23.86,14.65,21.9"/>
		<g>
			<defs>
				<path id="SVGID_00000155842306329340242200000003351957622857829767_" d="M14.85,21.98c-0.14,7.64-0.21,11.46-0.21,11.46
					c-0.28-6.17-0.43-9.26-0.43-9.26c-1.72,1.61-2.66,3.87-2.61,6.22c0.05,2.35,1.11,4.57,2.9,6.09
					C18.75,30.91,18.87,26.07,14.85,21.98"/>
			</defs>
			<clipPath id="SVGID_00000104667861129850008450000013234925239950011577_">
				<use xlink:href="#SVGID_00000155842306329340242200000003351957622857829767_"  style="overflow:visible;"/>
			</clipPath>
			
				<linearGradient id="SVGID_00000047047459175254994510000004746923432958005425_" gradientUnits="userSpaceOnUse" x1="578.7278" y1="83.854" x2="583.5815" y2="81.8302" gradientTransform="matrix(-1 0 0 -1 595.6096 112.394)">
				<stop  offset="0" style="stop-color:#018B45"/>
				<stop  offset="1" style="stop-color:#85BB40"/>
			</linearGradient>
			
				<rect x="11.55" y="21.98" style="clip-path:url(#SVGID_00000104667861129850008450000013234925239950011577_);fill:url(#SVGID_00000047047459175254994510000004746923432958005425_);" width="7.32" height="14.52"/>
		</g>
		<path class="st2" d="M14.89,21.98c-5.33,5.48-8,8.22-8,8.22c4.01-4.7,6.02-7.04,6.02-7.04c-2.35,0-4.59,1-6.16,2.75
			c-1.57,1.75-2.32,4.09-2.06,6.43C11.62,31.15,15.02,27.7,14.89,21.98"/>
		<path class="st3" d="M14.89,21.95C7.34,23.12,3.56,23.7,3.56,23.7c6.03-1.34,9.04-2.01,9.04-2.01c-1.88-1.41-4.27-1.96-6.58-1.5
			c-2.31,0.46-4.31,1.87-5.51,3.9C6.76,27.32,11.55,26.6,14.89,21.95"/>
		<path class="st3" d="M14.89,22.02c-6.69-3.7-10.03-5.55-10.03-5.55c5.59,2.63,8.38,3.95,8.38,3.95c-0.62-2.27-2.18-4.17-4.28-5.22
			c-2.1-1.05-4.56-1.16-6.74-0.29C5.18,21.28,9.4,23.65,14.89,22.02"/>
		<path class="st3" d="M14.86,21.98c-3.17-6.96-4.75-10.43-4.75-10.43c2.92,5.44,4.38,8.17,4.38,8.17c0.85-2.19,0.74-4.64-0.33-6.74
			c-1.06-2.1-2.97-3.64-5.24-4.25C7.5,15.6,9.48,20.02,14.86,21.98"/>
	</g>
</g>
</svg>
