<?xml version="1.0" encoding="utf-8"?>
<!-- Generator: Adobe Illustrator 26.0.2, SVG Export Plug-In . SVG Version: 6.00 Build 0)  -->
<svg version="1.1" id="Layer_1" xmlns="http://www.w3.org/2000/svg" xmlns:xlink="http://www.w3.org/1999/xlink" x="0px" y="0px"
	 viewBox="0 0 100 41" style="enable-background:new 0 0 100 41;" xml:space="preserve">
<style type="text/css">
	.st0{fill:#5FB246;}
</style>
<g>
	<g>
		<g>
			<path class="st0" d="M2.08,14.66h5.95c0.14,0,0.26,0.05,0.36,0.14c0.1,0.09,0.15,0.21,0.15,0.35c0,0.14-0.05,0.25-0.15,0.34
				c-0.1,0.09-0.22,0.13-0.36,0.13H2.46l0.16-0.28v4.57L2.44,19.7H7.3c0.14,0,0.26,0.05,0.36,0.15c0.1,0.1,0.15,0.21,0.15,0.34
				c0,0.14-0.05,0.25-0.15,0.34c-0.1,0.09-0.22,0.13-0.36,0.13H2.47l0.15-0.16v4.68l-0.08-0.1h5.5c0.14,0,0.26,0.05,0.36,0.15
				c0.1,0.1,0.15,0.21,0.15,0.34c0,0.14-0.05,0.26-0.15,0.34C8.3,26,8.18,26.05,8.04,26.05H2.08c-0.14,0-0.26-0.05-0.35-0.15
				c-0.09-0.1-0.14-0.21-0.14-0.34V15.15c0-0.13,0.05-0.24,0.14-0.34C1.83,14.71,1.94,14.66,2.08,14.66z"/>
			<path class="st0" d="M21.09,15.51c0.13,0.09,0.21,0.2,0.23,0.33c0.02,0.14-0.02,0.27-0.11,0.4c-0.08,0.11-0.17,0.17-0.28,0.17
				c-0.11,0.01-0.23-0.02-0.35-0.07c-0.4-0.27-0.84-0.48-1.32-0.63c-0.48-0.15-0.98-0.23-1.51-0.23c-0.66,0-1.28,0.12-1.85,0.36
				c-0.57,0.24-1.07,0.57-1.49,1.01c-0.42,0.43-0.75,0.95-0.98,1.55c-0.23,0.6-0.35,1.25-0.35,1.97c0,0.74,0.12,1.41,0.36,2.01
				c0.24,0.6,0.57,1.12,1,1.55c0.43,0.43,0.92,0.76,1.49,0.99c0.56,0.23,1.17,0.34,1.82,0.34c0.53,0,1.03-0.08,1.5-0.23
				c0.47-0.15,0.91-0.36,1.33-0.62c0.11-0.07,0.22-0.09,0.34-0.07c0.12,0.02,0.22,0.08,0.31,0.19c0.09,0.12,0.12,0.25,0.1,0.39
				c-0.02,0.14-0.09,0.24-0.21,0.31c-0.27,0.17-0.59,0.34-0.96,0.5c-0.37,0.16-0.76,0.28-1.17,0.37c-0.41,0.09-0.82,0.13-1.24,0.13
				c-0.78,0-1.52-0.14-2.2-0.42c-0.69-0.28-1.3-0.68-1.82-1.2c-0.53-0.51-0.94-1.13-1.24-1.85c-0.3-0.72-0.46-1.51-0.46-2.39
				c0-0.85,0.15-1.62,0.45-2.33c0.3-0.7,0.71-1.32,1.23-1.85c0.52-0.53,1.13-0.94,1.82-1.23c0.69-0.29,1.44-0.44,2.23-0.44
				c0.62,0,1.21,0.09,1.79,0.26C20.11,14.95,20.63,15.19,21.09,15.51z"/>
			<path class="st0" d="M35.5,20.35c0,0.86-0.13,1.64-0.4,2.35c-0.27,0.71-0.64,1.33-1.13,1.85c-0.49,0.53-1.07,0.93-1.73,1.22
				c-0.67,0.29-1.4,0.43-2.19,0.43c-0.8,0-1.53-0.14-2.2-0.43c-0.66-0.29-1.24-0.69-1.72-1.22c-0.49-0.53-0.87-1.14-1.14-1.85
				c-0.27-0.71-0.41-1.49-0.41-2.35c0-0.86,0.14-1.64,0.41-2.35c0.27-0.71,0.65-1.33,1.14-1.85c0.49-0.53,1.06-0.93,1.72-1.22
				c0.66-0.29,1.39-0.43,2.2-0.43c0.79,0,1.52,0.14,2.19,0.43c0.67,0.29,1.24,0.69,1.73,1.22c0.49,0.53,0.86,1.14,1.13,1.85
				C35.37,18.72,35.5,19.5,35.5,20.35z M34.46,20.35c0-0.96-0.19-1.81-0.57-2.55c-0.38-0.73-0.9-1.3-1.55-1.72
				c-0.66-0.41-1.42-0.62-2.28-0.62c-0.86,0-1.62,0.21-2.29,0.62c-0.67,0.41-1.19,0.98-1.56,1.72c-0.37,0.73-0.56,1.58-0.56,2.55
				c0,0.97,0.19,1.81,0.56,2.55c0.37,0.73,0.89,1.3,1.56,1.72c0.67,0.41,1.43,0.62,2.29,0.62c0.87,0,1.63-0.21,2.28-0.62
				c0.66-0.41,1.17-0.98,1.55-1.72C34.27,22.17,34.46,21.32,34.46,20.35z"/>
			<path class="st0" d="M38.94,15.59c-0.13,0-0.24-0.04-0.34-0.13c-0.1-0.09-0.15-0.2-0.15-0.33c0-0.14,0.05-0.25,0.15-0.34
				c0.1-0.09,0.21-0.13,0.34-0.13h7.72c0.14,0,0.26,0.04,0.36,0.13c0.1,0.09,0.15,0.2,0.15,0.34c0,0.14-0.05,0.25-0.15,0.33
				c-0.1,0.08-0.22,0.12-0.36,0.12H38.94z M42.81,26.05c-0.15,0-0.28-0.05-0.37-0.15c-0.1-0.1-0.15-0.21-0.15-0.34V15.2h1.02v10.36
				c0,0.13-0.05,0.24-0.15,0.34C43.07,26,42.95,26.05,42.81,26.05z"/>
			<path class="st0" d="M51.75,26.05c-0.16,0-0.3-0.05-0.4-0.15c-0.1-0.1-0.15-0.21-0.15-0.34V15.15c0-0.13,0.05-0.24,0.14-0.34
				c0.09-0.1,0.21-0.15,0.35-0.15h4.39c0.62,0,1.17,0.13,1.66,0.4c0.49,0.27,0.87,0.63,1.15,1.1c0.28,0.47,0.41,1,0.41,1.59
				c0,0.48-0.09,0.91-0.26,1.31c-0.17,0.4-0.42,0.73-0.73,1.01c-0.31,0.28-0.67,0.49-1.06,0.63l-0.57-0.2
				c0.4,0.04,0.77,0.18,1.12,0.4c0.35,0.22,0.63,0.53,0.84,0.91c0.21,0.38,0.32,0.84,0.33,1.37c0.01,0.47,0.04,0.83,0.07,1.09
				c0.04,0.26,0.09,0.46,0.17,0.59c0.08,0.13,0.17,0.23,0.29,0.31c0.11,0.07,0.18,0.16,0.22,0.28c0.04,0.12,0.02,0.23-0.04,0.34
				c-0.04,0.09-0.11,0.15-0.2,0.19c-0.09,0.04-0.17,0.06-0.26,0.06c-0.09,0-0.17-0.02-0.24-0.07c-0.16-0.09-0.32-0.22-0.47-0.41
				c-0.15-0.18-0.28-0.46-0.38-0.81c-0.1-0.36-0.15-0.86-0.15-1.5c0-0.42-0.07-0.77-0.2-1.03c-0.14-0.27-0.31-0.47-0.52-0.63
				c-0.21-0.15-0.44-0.25-0.7-0.31c-0.25-0.05-0.5-0.08-0.72-0.08h-3.79l0.18-0.24v4.6c0,0.13-0.04,0.24-0.13,0.34
				C52.01,26,51.9,26.05,51.75,26.05z M52.05,20.29h4.08c0.37-0.03,0.71-0.15,1.03-0.36c0.32-0.21,0.58-0.5,0.79-0.87
				c0.21-0.37,0.31-0.81,0.31-1.29c0-0.62-0.21-1.13-0.63-1.54c-0.42-0.41-0.96-0.61-1.63-0.61h-3.89l0.11-0.21v5.11L52.05,20.29z"
				/>
			<path class="st0" d="M64.53,14.66h5.95c0.14,0,0.26,0.05,0.36,0.14c0.1,0.09,0.15,0.21,0.15,0.35c0,0.14-0.05,0.25-0.15,0.34
				c-0.1,0.09-0.22,0.13-0.36,0.13h-5.58l0.16-0.28v4.57l-0.18-0.21h4.86c0.14,0,0.26,0.05,0.36,0.15c0.1,0.1,0.15,0.21,0.15,0.34
				c0,0.14-0.05,0.25-0.15,0.34c-0.1,0.09-0.22,0.13-0.36,0.13h-4.83l0.15-0.16v4.68l-0.08-0.1h5.5c0.14,0,0.26,0.05,0.36,0.15
				c0.1,0.1,0.15,0.21,0.15,0.34c0,0.14-0.05,0.26-0.15,0.34c-0.1,0.09-0.22,0.13-0.36,0.13h-5.95c-0.14,0-0.26-0.05-0.35-0.15
				c-0.09-0.1-0.14-0.21-0.14-0.34V15.15c0-0.13,0.05-0.24,0.14-0.34C64.28,14.71,64.39,14.66,64.53,14.66z"/>
			<path class="st0" d="M83.56,14.66c0.14,0,0.25,0.04,0.33,0.13c0.08,0.09,0.12,0.2,0.12,0.33v10.41c0,0.16-0.05,0.29-0.15,0.38
				c-0.1,0.09-0.22,0.14-0.35,0.14c-0.08,0-0.15-0.01-0.22-0.04c-0.07-0.03-0.13-0.07-0.17-0.12l-7.25-9.76l0.28-0.16v9.64
				c0,0.12-0.04,0.22-0.13,0.31c-0.09,0.09-0.2,0.13-0.33,0.13c-0.14,0-0.25-0.04-0.33-0.13c-0.08-0.09-0.12-0.19-0.12-0.31V15.15
				c0-0.15,0.05-0.27,0.14-0.36c0.09-0.09,0.2-0.13,0.33-0.13c0.07,0,0.14,0.01,0.21,0.04c0.08,0.03,0.14,0.07,0.18,0.14l7.17,9.66
				l-0.16,0.29v-9.68c0-0.13,0.04-0.24,0.13-0.33C83.32,14.71,83.43,14.66,83.56,14.66z"/>
			<path class="st0" d="M93.65,14.66c0.8,0,1.5,0.15,2.1,0.46c0.6,0.3,1.09,0.72,1.49,1.26c0.4,0.54,0.69,1.15,0.88,1.83
				c0.19,0.68,0.28,1.4,0.28,2.15c0,1.04-0.17,1.99-0.51,2.85c-0.34,0.86-0.86,1.55-1.56,2.07c-0.7,0.52-1.59,0.77-2.68,0.77h-4.15
				c-0.14,0-0.26-0.05-0.35-0.15c-0.09-0.1-0.14-0.21-0.14-0.34V15.15c0-0.13,0.05-0.24,0.14-0.34c0.09-0.1,0.21-0.15,0.35-0.15
				H93.65z M93.49,25.09c0.91,0,1.65-0.21,2.22-0.63c0.57-0.42,0.99-0.99,1.25-1.72c0.27-0.72,0.4-1.51,0.4-2.38
				c0-0.62-0.07-1.21-0.22-1.79c-0.15-0.57-0.37-1.08-0.68-1.52c-0.31-0.44-0.71-0.79-1.2-1.04s-1.08-0.38-1.76-0.38h-3.56
				l0.11-0.13v9.76l-0.1-0.16H93.49z"/>
		</g>
	</g>
</g>
</svg>
