<?xml version="1.0" encoding="utf-8"?>
<!-- Generator: Adobe Illustrator 26.0.2, SVG Export Plug-In . SVG Version: 6.00 Build 0)  -->
<svg version="1.1" id="Layer_1" xmlns="http://www.w3.org/2000/svg" xmlns:xlink="http://www.w3.org/1999/xlink" x="0px" y="0px"
	 viewBox="0 0 30 30" style="enable-background:new 0 0 30 30;" xml:space="preserve">
<style type="text/css">
	
		.st0{clip-path:url(#SVGID_00000104682346988769900330000011320159018222558854_);fill:url(#SVGID_00000013891027223193222170000016677009368410609069_);}
	.st1{opacity:0.57;fill-rule:evenodd;clip-rule:evenodd;fill:#FFCD4B;}
	.st2{opacity:0.43;fill-rule:evenodd;clip-rule:evenodd;fill:#60BD7A;}
	
		.st3{clip-path:url(#SVGID_00000018956482205167543050000001590466604749599139_);fill:url(#SVGID_00000036210091676054290330000017748794029640047031_);}
</style>
<g>
	<g>
		<defs>
			<path id="SVGID_1_" d="M14.66,14.9c0.14-7.64,0.21-11.46,0.21-11.46c0.28,6.17,0.43,9.26,0.43,9.26
				c1.72-1.61,2.66-3.87,2.61-6.22c-0.05-2.35-1.11-4.57-2.9-6.09C10.77,5.97,10.65,10.81,14.66,14.9"/>
		</defs>
		<clipPath id="SVGID_00000022537168853359014690000003929101047699448705_">
			<use xlink:href="#SVGID_1_"  style="overflow:visible;"/>
		</clipPath>
		
			<linearGradient id="SVGID_00000155109823719751513700000012535274322649412750_" gradientUnits="userSpaceOnUse" x1="12.6328" y1="8.3345" x2="17.4865" y2="6.3107">
			<stop  offset="0" style="stop-color:#018B45"/>
			<stop  offset="1" style="stop-color:#85BB40"/>
		</linearGradient>
		
			<rect x="10.65" y="0.37" style="clip-path:url(#SVGID_00000022537168853359014690000003929101047699448705_);fill:url(#SVGID_00000155109823719751513700000012535274322649412750_);" width="7.32" height="14.52"/>
	</g>
	<path class="st1" d="M14.63,14.9c5.33-5.48,8-8.22,8-8.22c-4.01,4.7-6.02,7.04-6.02,7.04c2.35,0,4.59-1,6.16-2.75
		c1.57-1.75,2.32-4.09,2.06-6.43C17.9,5.72,14.5,9.17,14.63,14.9"/>
	<path class="st2" d="M14.63,14.93c7.55-1.17,11.33-1.76,11.33-1.76c-6.03,1.34-9.04,2.01-9.04,2.01c1.88,1.41,4.27,1.96,6.58,1.5
		c2.31-0.46,4.31-1.87,5.51-3.9C22.75,9.56,17.96,10.27,14.63,14.93"/>
	<path class="st2" d="M14.63,14.86c6.69,3.7,10.03,5.55,10.03,5.55c-5.59-2.63-8.38-3.95-8.38-3.95c0.62,2.27,2.18,4.17,4.28,5.22
		c2.1,1.05,4.56,1.16,6.74,0.29C24.34,15.59,20.12,13.22,14.63,14.86"/>
	<path class="st2" d="M14.65,14.9c3.17,6.96,4.75,10.43,4.75,10.43c-2.92-5.44-4.38-8.17-4.38-8.17c-0.85,2.19-0.74,4.64,0.33,6.74
		c1.06,2.1,2.97,3.64,5.24,4.25C22.02,21.28,20.04,16.86,14.65,14.9"/>
	<g>
		<defs>
			<path id="SVGID_00000134961257306565527230000006609787138785543587_" d="M14.85,14.98c-0.14,7.64-0.21,11.46-0.21,11.46
				c-0.28-6.17-0.43-9.26-0.43-9.26c-1.72,1.61-2.66,3.87-2.61,6.22c0.05,2.35,1.11,4.57,2.9,6.09
				C18.75,23.91,18.87,19.07,14.85,14.98"/>
		</defs>
		<clipPath id="SVGID_00000047023659406491092550000008089890892267603116_">
			<use xlink:href="#SVGID_00000134961257306565527230000006609787138785543587_"  style="overflow:visible;"/>
		</clipPath>
		
			<linearGradient id="SVGID_00000009588800898221247050000017527878353421641405_" gradientUnits="userSpaceOnUse" x1="578.7278" y1="76.854" x2="583.5815" y2="74.8302" gradientTransform="matrix(-1 0 0 -1 595.6096 98.394)">
			<stop  offset="0" style="stop-color:#018B45"/>
			<stop  offset="1" style="stop-color:#85BB40"/>
		</linearGradient>
		
			<rect x="11.55" y="14.98" style="clip-path:url(#SVGID_00000047023659406491092550000008089890892267603116_);fill:url(#SVGID_00000009588800898221247050000017527878353421641405_);" width="7.32" height="14.52"/>
	</g>
	<path class="st1" d="M14.89,14.98c-5.33,5.48-8,8.22-8,8.22c4.01-4.7,6.02-7.04,6.02-7.04c-2.35,0-4.59,1-6.16,2.75
		c-1.57,1.75-2.32,4.09-2.06,6.43C11.62,24.15,15.02,20.7,14.89,14.98"/>
	<path class="st2" d="M14.89,14.95C7.34,16.12,3.56,16.7,3.56,16.7c6.03-1.34,9.04-2.01,9.04-2.01c-1.88-1.41-4.27-1.96-6.58-1.5
		c-2.31,0.46-4.31,1.87-5.51,3.9C6.76,20.32,11.55,19.6,14.89,14.95"/>
	<path class="st2" d="M14.89,15.02C8.2,11.32,4.86,9.47,4.86,9.47c5.59,2.63,8.38,3.95,8.38,3.95c-0.62-2.27-2.18-4.17-4.28-5.22
		C6.85,7.15,4.4,7.05,2.22,7.91C5.18,14.28,9.4,16.65,14.89,15.02"/>
	<path class="st2" d="M14.86,14.98C11.7,8.02,10.11,4.54,10.11,4.54c2.92,5.44,4.38,8.17,4.38,8.17c0.85-2.19,0.74-4.64-0.33-6.74
		c-1.06-2.1-2.97-3.64-5.24-4.25C7.5,8.6,9.48,13.02,14.86,14.98"/>
</g>
</svg>
